<svg id="Layer_1" data-name="Layer 1" xmlns="http://www.w3.org/2000/svg" xmlns:xlink="http://www.w3.org/1999/xlink" viewBox="0 0 416.18 478.26"><defs><linearGradient id="linear-gradient" x1="174.17" y1="189.98" x2="158.59" y2="198.52" gradientUnits="userSpaceOnUse"><stop offset="0" stop-opacity="0"/><stop offset="0.97"/></linearGradient><linearGradient id="linear-gradient-2" x1="71.27" y1="261.91" x2="204.73" y2="269.79" xlink:href="#linear-gradient"/><linearGradient id="linear-gradient-3" x1="83.54" y1="225.17" x2="83.54" y2="353.27" xlink:href="#linear-gradient"/><linearGradient id="linear-gradient-4" x1="160.93" y1="176.85" x2="141.5" y2="346.63" xlink:href="#linear-gradient"/><linearGradient id="linear-gradient-5" x1="83.64" y1="404.78" x2="104.56" y2="404.78" gradientUnits="userSpaceOnUse"><stop offset="0" stop-color="#ecc4d7"/><stop offset="0.42" stop-color="#efd4d1"/><stop offset="1" stop-color="#f2eac9"/></linearGradient><linearGradient id="linear-gradient-6" x1="106.93" y1="404.86" x2="128.62" y2="404.86" xlink:href="#linear-gradient-5"/><linearGradient id="linear-gradient-7" x1="271.27" y1="-219.2" x2="283.66" y2="401.36" gradientUnits="userSpaceOnUse"><stop offset="0" stop-color="#fff" stop-opacity="0"/><stop offset="0.84" stop-color="#fff" stop-opacity="0.84"/><stop offset="0.97" stop-color="#fff"/></linearGradient><linearGradient id="linear-gradient-8" x1="298.15" y1="99.34" x2="298.37" y2="109.95" xlink:href="#linear-gradient-7"/><linearGradient id="linear-gradient-9" x1="277.23" y1="88.38" x2="277.51" y2="95.03" xlink:href="#linear-gradient"/><linearGradient id="linear-gradient-10" x1="283.65" y1="193.14" x2="275.17" y2="207.47" xlink:href="#linear-gradient"/><linearGradient id="linear-gradient-11" x1="267.63" y1="184.68" x2="254.77" y2="239.03" xlink:href="#linear-gradient"/><linearGradient id="linear-gradient-12" x1="359.23" y1="267.84" x2="351.53" y2="287.45" xlink:href="#linear-gradient"/><linearGradient id="linear-gradient-13" x1="268.01" y1="251.24" x2="268.92" y2="260.81" xlink:href="#linear-gradient"/><linearGradient id="linear-gradient-14" x1="257.41" y1="288.28" x2="282.8" y2="288.28" xlink:href="#linear-gradient"/><linearGradient id="linear-gradient-15" x1="112.77" y1="184.77" x2="144.81" y2="201.27" xlink:href="#linear-gradient-5"/><linearGradient id="linear-gradient-16" x1="101.53" y1="264.94" x2="217.53" y2="280.71" xlink:href="#linear-gradient"/><linearGradient id="linear-gradient-17" x1="108.95" y1="286.28" x2="108.95" y2="426.22" xlink:href="#linear-gradient"/><linearGradient id="linear-gradient-18" x1="93.69" y1="464.65" x2="92.56" y2="440.53" xlink:href="#linear-gradient-7"/><linearGradient id="linear-gradient-19" x1="120.25" y1="459.54" x2="119.03" y2="443.77" gradientUnits="userSpaceOnUse"><stop offset="0" stop-color="#fff" stop-opacity="0"/><stop offset="0.69" stop-color="#fff" stop-opacity="0.58"/><stop offset="0.84" stop-color="#fff" stop-opacity="0.84"/><stop offset="0.97" stop-color="#fff"/></linearGradient><linearGradient id="linear-gradient-20" x1="271.59" y1="210.12" x2="333.25" y2="223.91" xlink:href="#linear-gradient"/><linearGradient id="linear-gradient-21" x1="333.11" y1="303.98" x2="403.32" y2="289.34" xlink:href="#linear-gradient-7"/><linearGradient id="linear-gradient-22" x1="241.6" y1="285.63" x2="301.29" y2="295.77" xlink:href="#linear-gradient-7"/><linearGradient id="linear-gradient-23" x1="300.66" y1="278.31" x2="253.35" y2="301.96" xlink:href="#linear-gradient-7"/><linearGradient id="linear-gradient-24" x1="152.07" y1="226.52" x2="167.19" y2="226.52" xlink:href="#linear-gradient-5"/><linearGradient id="linear-gradient-25" x1="334.24" y1="304.3" x2="418.71" y2="296.98" xlink:href="#linear-gradient"/><linearGradient id="linear-gradient-26" x1="353.14" y1="259.7" x2="353.68" y2="286.87" xlink:href="#linear-gradient-7"/><linearGradient id="linear-gradient-27" x1="322.68" y1="208.98" x2="323.34" y2="241.7" xlink:href="#linear-gradient-7"/><linearGradient id="linear-gradient-28" x1="333.73" y1="219.02" x2="229.36" y2="223.71" xlink:href="#linear-gradient"/><linearGradient id="linear-gradient-29" x1="339.43" y1="187.95" x2="324.23" y2="295.23" xlink:href="#linear-gradient-7"/><linearGradient id="linear-gradient-30" x1="341.82" y1="219.73" x2="261.1" y2="223.36" gradientTransform="translate(-12.23 22.37) rotate(-3.75)" xlink:href="#linear-gradient"/><linearGradient id="linear-gradient-31" x1="352.58" y1="186.27" x2="336.69" y2="298.4" xlink:href="#linear-gradient-7"/><linearGradient id="linear-gradient-32" x1="358.02" y1="219.56" x2="246.27" y2="224.58" gradientTransform="translate(-12.23 22.37) rotate(-3.75)" xlink:href="#linear-gradient"/><linearGradient id="linear-gradient-33" x1="366.97" y1="189.24" x2="352.42" y2="291.88" xlink:href="#linear-gradient-7"/><linearGradient id="linear-gradient-34" x1="377" y1="219.42" x2="211.31" y2="226.87" gradientTransform="translate(-12.23 22.37) rotate(-3.75)" xlink:href="#linear-gradient"/><linearGradient id="linear-gradient-35" x1="342.35" y1="195.46" x2="400.07" y2="234.6" xlink:href="#linear-gradient"/><linearGradient id="linear-gradient-36" x1="342.6" y1="112.2" x2="354.9" y2="119.34" xlink:href="#linear-gradient"/><linearGradient id="linear-gradient-37" x1="350.54" y1="124.75" x2="340.03" y2="253.14" xlink:href="#linear-gradient"/><linearGradient id="linear-gradient-38" x1="342.88" y1="125.46" x2="323.46" y2="230.76" xlink:href="#linear-gradient"/><linearGradient id="linear-gradient-39" x1="377.38" y1="115.27" x2="349.6" y2="120.9" xlink:href="#linear-gradient"/><linearGradient id="linear-gradient-40" x1="359.58" y1="110.28" x2="355.64" y2="154.11" xlink:href="#linear-gradient"/><linearGradient id="linear-gradient-41" x1="273.25" y1="88.46" x2="271.77" y2="92.64" xlink:href="#linear-gradient-7"/><linearGradient id="linear-gradient-42" x1="279.88" y1="86.78" x2="280" y2="92.82" xlink:href="#linear-gradient-7"/><linearGradient id="linear-gradient-43" x1="251.14" y1="93.37" x2="251.44" y2="108.41" xlink:href="#linear-gradient-7"/><linearGradient id="linear-gradient-44" x1="295.48" y1="127.27" x2="160.89" y2="130.65" xlink:href="#linear-gradient"/><linearGradient id="linear-gradient-45" x1="265.18" y1="131.52" x2="235.61" y2="124.34" xlink:href="#linear-gradient-7"/><linearGradient id="linear-gradient-46" x1="66.25" y1="336.08" x2="-88.23" y2="326.13" xlink:href="#linear-gradient"/><linearGradient id="linear-gradient-47" x1="78.29" y1="339.18" x2="-31.52" y2="357.76" xlink:href="#linear-gradient"/><linearGradient id="linear-gradient-48" x1="127.62" y1="338.61" x2="143.28" y2="338.61" xlink:href="#linear-gradient"/><linearGradient id="linear-gradient-49" x1="126.77" y1="305.43" x2="126.77" y2="409.71" xlink:href="#linear-gradient"/><linearGradient id="linear-gradient-50" x1="108.42" y1="204.49" x2="108.42" y2="249.4" xlink:href="#linear-gradient"/><linearGradient id="linear-gradient-51" x1="285.33" y1="359.77" x2="285.9" y2="462.82" xlink:href="#linear-gradient"/></defs><title>53. Online Shopping</title><path d="M150.12,76.94C138.46,94.21,135.05,117.3,119,130.6,108.9,139,95.46,141.92,83.72,147.82,56,161.73,38.82,194,42.69,224.73c1.72,13.67,7.18,26.88,7,40.66-.29,19.9-12.25,37.82-15.23,57.51-4.21,27.89,10.06,55.32,27.39,77.59,10.27,13.19,22.52,25.91,38.46,31,13.12,4.17,27.27,2.69,41,3.51,28.46,1.68,55.29,13.23,83.05,19.78s59.47,7.29,82.08-10.09c10.37-8,18.19-19.36,29.84-25.34,9.05-4.64,19.48-5.54,29.57-6.8,27.69-3.44,57.58-11.95,73-35.2,11.21-16.91,12.5-38.6,9.92-58.72s-8.62-39.7-10.77-59.87c-4.93-46.29,10.83-92.93,5.89-139.21C441.7,99.17,435,78.38,420.12,64.26c-19.52-18.58-48.67-22-75.6-22.79-31.81-.89-63.64.67-95.42,2.23C215.38,45.35,171.08,45.9,150.12,76.94Z" transform="translate(-33.7 -0.07)" fill="#b4a078" opacity="0.25" style="isolation:isolate"/><path d="M167.46,203l2.67-14.78s.85-3.55-1.33-4.36-13.35-2.68-13.35-2.68-2.35.65-2.21,2.25S149,212.51,149,212.51s.09.83,1.41,1.63,11.26,1.75,11.26,1.75,2.82-1.15,3.1-1.75S167.46,203,167.46,203Z" transform="translate(-33.7 -0.07)" fill="#b4a078"/><path d="M167.46,203l2.67-14.78s.85-3.55-1.33-4.36-13.35-2.68-13.35-2.68-2.35.65-2.21,2.25S149,212.51,149,212.51s.09.83,1.41,1.63,11.26,1.75,11.26,1.75,2.82-1.15,3.1-1.75S167.46,203,167.46,203Z" transform="translate(-33.7 -0.07)" fill="url(#linear-gradient)"/><path d="M97.79,212.62s-23,28.52-25.31,52.54,12.9,48.44,12.9,48.44H97.79L95,278.3Z" transform="translate(-33.7 -0.07)" fill="#b4a078"/><path d="M97.79,212.62s-23,28.52-25.31,52.54,12.9,48.44,12.9,48.44H97.79L95,278.3Z" transform="translate(-33.7 -0.07)" fill="url(#linear-gradient-2)"/><path d="M87.78,235.21s-12.59,18.27-10.61,40.23,10.26,31,10.26,31l2.69-7.33Z" transform="translate(-33.7 -0.07)" opacity="0.28" fill="url(#linear-gradient-3)"/><path d="M166.29,202.52,169,187.74s.85-3.55-1.33-4.36-13.36-2.68-13.36-2.68-2.34.65-2.2,2.25S147.8,212,147.8,212s.09.83,1.41,1.63,11.26,1.75,11.26,1.75,2.81-1.15,3.1-1.75S166.29,202.52,166.29,202.52Z" transform="translate(-33.7 -0.07)" fill="#b4a078"/><path d="M165.22,201.18l2.31-12.76s.73-3.07-1.15-3.77-11.53-2.32-11.53-2.32-2,.57-1.91,1.95-3.69,25.13-3.69,25.13.08.71,1.22,1.41,9.73,1.5,9.73,1.5,2.43-1,2.67-1.5S165.22,201.18,165.22,201.18Z" transform="translate(-33.7 -0.07)" fill="url(#linear-gradient-4)"/><path d="M87.7,440.71c1.28,6.5.92,13.48,4.16,19.26,3.07,1,4.87-3.37,5.13-6.58l7.53-93.17c.63-7.79-6.62-13.85-14-9.09-6.77,4.36-4.91,15.76-4.89,22.43C85.69,396,79.94,401.25,87.7,440.71Z" transform="translate(-33.7 -0.07)" fill="url(#linear-gradient-5)"/><path d="M114.78,438.15c.66,6,1.37,12.21,4,17.7.36.77.86,1.59,1.69,1.77,1.56.32,2.4-1.75,2.6-3.32a693.87,693.87,0,0,0,5.56-81.36c0-5.39-.06-11.14-3-15.64s-12.8-7.65-16.89-2.88,0,20.15.53,25.88Q111.64,409.25,114.78,438.15Z" transform="translate(-33.7 -0.07)" fill="url(#linear-gradient-6)"/><rect x="164.46" width="228.44" height="391.01" rx="46.19" fill="#b4a078"/><rect x="176.83" y="12.12" width="205.13" height="351.1" rx="41.47" fill="url(#linear-gradient-7)"/><path d="M263.32,89.86a31.26,31.26,0,0,1-4.26,6.69c-3.39,3.74-8.35,5.61-12.28,8.77s-6.83,8.92-4.12,13.17c1.31,2.05,3.64,3.24,5.18,5.12,4.11,5,1.36,12.58,2.69,18.93,1.54,7.29,8.82,12.46,16.24,13s14.72-2.78,20.4-7.59a67.35,67.35,0,0,1,6.32-5.27c2.25-1.47,4.79-2.46,7-3.94a18.93,18.93,0,0,0,8.32-15.15c.07-3.36-.78-6.66-1-10-.4-5,.49-10-.1-15s-3.18-10.24-7.94-11.79c-1.85-.61-3.85-.59-5.74-1.06-4.06-1-7.17-4.19-10.67-6.5C272.14,71.82,267.91,81.11,263.32,89.86Z" transform="translate(-33.7 -0.07)" fill="#b4a078" opacity="0.25"/><path d="M388.4,141a31,31,0,0,1-1.7-7.75c-.23-5,2-9.86,2.52-14.87s-1.46-11.14-6.38-12.24c-2.38-.53-4.86.27-7.28,0-6.47-.66-9.84-8-15.27-11.52-6.23-4.08-15-2.61-20.69,2.23s-8.47,12.36-9.1,19.78a67.93,67.93,0,0,1-.76,8.19c-.55,2.63-1.66,5.11-2.2,7.75a18.88,18.88,0,0,0,4.79,16.6c2.32,2.43,5.25,4.18,7.81,6.36,3.8,3.26,6.73,7.46,10.66,10.57s9.48,5,13.94,2.75c1.74-.88,3.14-2.3,4.82-3.3,3.6-2.14,8-2.09,12.15-2.92C394.88,160,391.32,150.41,388.4,141Z" transform="translate(-33.7 -0.07)" fill="#b4a078" opacity="0.25"/><path d="M290.9,312a33,33,0,0,1,2.41-8.07c2.38-4.79,6.89-8.15,10-12.51s4.38-11.08.37-14.63c-1.93-1.72-4.65-2.25-6.77-3.73-5.66-3.93-5-12.44-8.24-18.54-3.68-7-12.62-10.15-20.35-8.57S254.09,253,249.7,259.6a71.64,71.64,0,0,1-4.93,7.21c-1.86,2.16-4.17,3.9-6,6.06a20.09,20.09,0,0,0-4.1,17.88c.91,3.44,2.73,6.57,4,9.91,1.85,5,2.41,10.39,4.45,15.29s6.22,9.53,11.53,9.73c2.07.08,4.1-.52,6.16-.59,4.45-.13,8.54,2.2,12.78,3.54C287.14,333,288.76,322.24,290.9,312Z" transform="translate(-33.7 -0.07)" fill="#b4a078" opacity="0.25"/><path d="M284.5,226.28a26.81,26.81,0,0,1,2.27-6.5c2.12-3.84,5.93-6.42,8.63-9.88s4-8.9.84-12c-1.52-1.48-3.72-2-5.4-3.3-4.49-3.43-3.67-10.36-6.07-15.47-2.75-5.85-9.95-8.77-16.33-7.76s-11.89,5.3-15.73,10.51a58.68,58.68,0,0,1-4.29,5.71c-1.6,1.7-3.56,3-5.15,4.74a16.43,16.43,0,0,0-4,14.47c.62,2.86,2,5.48,2.89,8.26,1.33,4.14,1.59,8.59,3.09,12.68s4.73,8,9.07,8.37c1.69.14,3.37-.27,5.06-.25,3.64.06,6.91,2.11,10.33,3.37C280.65,243.31,282.37,234.6,284.5,226.28Z" transform="translate(-33.7 -0.07)" fill="#b4a078" opacity="0.25"/><path d="M326.52,198.62a27.64,27.64,0,0,1-1.16,7.07c-1.54,4.39-5.17,8-7.41,12.19s-2.55,9.93,1.48,12c1.95,1,4.45.93,6.54,1.73,5.56,2.11,6,9.19,9.69,13.55,4.17,5,12.57,5.83,19.32,3s11.86-8.6,15-14.83a68.28,68.28,0,0,1,3.52-6.86c1.4-2.13,3.26-4,4.65-6.14A16,16,0,0,0,379.6,205c-1.24-2.64-3.26-4.85-4.8-7.33-2.28-3.71-3.45-8-5.89-11.64s-6.76-6.57-11.55-5.7c-1.86.34-3.61,1.23-5.45,1.69-4,1-7.93-.12-11.9-.39C327.29,180.73,327.16,189.81,326.52,198.62Z" transform="translate(-33.7 -0.07)" fill="#b4a078" opacity="0.25"/><path d="M373.48,324.31a31.79,31.79,0,0,1,2.6-7.76c2.46-4.58,6.95-7.69,10.09-11.83s4.61-10.62.84-14.19c-1.83-1.73-4.45-2.33-6.46-3.84-5.37-4-4.49-12.24-7.41-18.26-3.35-6.9-11.93-10.26-19.49-9s-14,6.45-18.5,12.68a73.61,73.61,0,0,1-5,6.84c-1.88,2-4.18,3.65-6.05,5.69a19.51,19.51,0,0,0-4.55,17.23c.77,3.37,2.44,6.47,3.54,9.75,1.65,4.9,2,10.16,3.84,15s5.74,9.45,10.89,9.81c2,.14,4-.37,6-.37,4.32,0,8.22,2.4,12.29,3.85C369.16,344.55,371.07,334.2,373.48,324.31Z" transform="translate(-33.7 -0.07)" fill="#b4a078" opacity="0.25"/><path d="M300.2,103.24l.88,1.93s-1.19,3.48-3,3.94-2,.14-2,.14l-.53-.78A6.34,6.34,0,0,0,300.2,103.24Z" transform="translate(-33.7 -0.07)" fill="url(#linear-gradient-8)"/><path d="M272.93,89.3a7.27,7.27,0,0,0,3.52.1,21.28,21.28,0,0,1,5.32-.1s-2.22,3.64-6.07,2.75S272.93,89.3,272.93,89.3Z" transform="translate(-33.7 -0.07)" fill="#b4a078"/><path d="M272.93,89.3a7.27,7.27,0,0,0,3.52.1,21.28,21.28,0,0,1,5.32-.1s-2.22,3.64-6.07,2.75S272.93,89.3,272.93,89.3Z" transform="translate(-33.7 -0.07)" fill="url(#linear-gradient-9)"/><path d="M277.23,187.52s1.12,6.76,3.84,8.45,7.69,5,7.69,5L275,202Z" transform="translate(-33.7 -0.07)" fill="#b4a078"/><path d="M277.23,187.52s1.12,6.76,3.84,8.45,7.69,5,7.69,5L275,202Z" transform="translate(-33.7 -0.07)" fill="url(#linear-gradient-10)"/><path d="M259.66,184.89s-1.11,9.76,4.33,9.39,8.79-7.5,8.79-7.5l5.38,11.35-3.57,8.54L253.76,210,249.82,202Z" transform="translate(-33.7 -0.07)" fill="#b4a078"/><path d="M259.66,184.89s-1.11,9.76,4.33,9.39,8.79-7.5,8.79-7.5l5.38,11.35-3.57,8.54L253.76,210,249.82,202Z" transform="translate(-33.7 -0.07)" fill="url(#linear-gradient-11)"/><path d="M366.85,269.9c5.71,1.8,2.89,9,2.89,9l-26.49-8.2S352.77,265.45,366.85,269.9Z" transform="translate(-33.7 -0.07)" fill="#b4a078"/><path d="M366.85,269.9c5.71,1.8,2.89,9,2.89,9l-26.49-8.2S352.77,265.45,366.85,269.9Z" transform="translate(-33.7 -0.07)" fill="url(#linear-gradient-12)"/><path d="M343.25,270.7l-1.77-10.95a.91.91,0,0,1,.76-1h0a.9.9,0,0,1,1.05.75l1.76,11a.9.9,0,0,1-.8,1h0A.9.9,0,0,1,343.25,270.7Z" transform="translate(-33.7 -0.07)" fill="#b4a078"/><path d="M360.26,271.06,362,260.12a.92.92,0,0,1,1.05-.76h0a.92.92,0,0,1,.76,1.05l-1.76,10.94a.91.91,0,0,1-1.1.75h0A.92.92,0,0,1,360.26,271.06Z" transform="translate(-33.7 -0.07)" fill="#b4a078"/><path d="M258.78,255.83a14,14,0,0,1,11.32-3c7,1.13,8.11,4,8.11,4l-5.12,1.49s-8.4-3-11.35,1.46Z" transform="translate(-33.7 -0.07)" fill="#b4a078"/><path d="M258.78,255.83a14,14,0,0,1,11.32-3c7,1.13,8.11,4,8.11,4l-5.12,1.49s-8.4-3-11.35,1.46Z" transform="translate(-33.7 -0.07)" fill="url(#linear-gradient-13)"/><path d="M275.75,258a410.08,410.08,0,0,0,6.71,53.41c.55,2.87.73,6.61-1.89,7.88a6.67,6.67,0,0,1-3.44.35c-4.84-.36-10.18-.95-13.46-4.54-2.29-2.5-3.09-6-3.7-9.34a158,158,0,0,1-2.43-34.67c.16-4,.26-10.85,4.14-13.41C263.45,256.52,275.66,256.5,275.75,258Z" transform="translate(-33.7 -0.07)" fill="#b4a078"/><path d="M275.75,258a410.08,410.08,0,0,0,6.71,53.41c.55,2.87.73,6.61-1.89,7.88a6.67,6.67,0,0,1-3.44.35c-4.84-.36-10.18-.95-13.46-4.54-2.29-2.5-3.09-6-3.7-9.34a158,158,0,0,1-2.43-34.67c.16-4,.26-10.85,4.14-13.41C263.45,256.52,275.66,256.5,275.75,258Z" transform="translate(-33.7 -0.07)" fill="url(#linear-gradient-14)"/><path d="M132.36,175.57c-.19,3.89-.91,20-3.94,22.49-2.82,2.28-7.61,1.13-9.79,4-2,2.7-2.16,6.73-2.67,10.06-.21,1.4-3.25-1.61-4.37-.75-2,1.54-9.64,3.6-9.22,1.13a29.24,29.24,0,0,0,.26-9.62l-2-13.35c-.9-6.11-1.81-12.31-1-18.44s3.52-12.26,8.57-15.82c7-5,13.37-.84,17.71,5.36C129.84,166.23,132.66,169.15,132.36,175.57Z" transform="translate(-33.7 -0.07)" fill="url(#linear-gradient-15)"/><path d="M98.38,145.25c-6.31,3.64-9.45,11.06-10.69,18.24s-1,14.58-2.64,21.67-5.73,14.25-12.57,16.77c4.07,2,8.18,4,12.6,4.89s9.24.74,13.16-1.49l-.58,2.73c4.64-.26,9.48-.57,13.47-2.95,5.27-3.15,8-9.25,9.51-15.19,2.74-10.73,2.6-22,2.33-33a19.12,19.12,0,0,0-.92-6.45C118.83,142.22,104.92,141.47,98.38,145.25Z" transform="translate(-33.7 -0.07)" fill="#25233a"/><path d="M133.34,148.65a8.15,8.15,0,0,1,2.91,3,11.53,11.53,0,0,1,.93,4.24,32.1,32.1,0,0,1,.1,7.13,10.74,10.74,0,0,1-2.95,6.36,16,16,0,0,1-5.4,3l.74-3.47-4,3.6a4.16,4.16,0,0,1,.62-2.64l-3.81,1.82a46.43,46.43,0,0,0,.17-11.6c-.4-3.65-2.22-4.22-4.57-6.52-2.09-2-2.38-3.59.13-5.31C122.54,145.31,129.15,146.05,133.34,148.65Z" transform="translate(-33.7 -0.07)" fill="#25233a"/><path d="M119.87,212.74c1.8,1.26,3.4,2.8,5.2,4.07a9.86,9.86,0,0,1,3,2.65,82,82,0,0,1,3.41,12.34c.09,4-2.6-.45-2.65,3.57l-.81,54.51c0,2.25-.09,4.59-1.15,6.56-1.82,3.4-6,4.7-9.74,5.46a95.32,95.32,0,0,1-15.24,1.8,19.34,19.34,0,0,1-6.79-.63c-4-1.3-6.9-4.87-8.41-8.78s-1.82-8.16-2-12.34c-1-20.36-.3-41.32,7.39-60.2,1.77-4.36,5.21-10.21,9.88-12C107.59,207.57,115.1,209.41,119.87,212.74Z" transform="translate(-33.7 -0.07)" fill="#b4a078"/><path d="M120.68,235.21s-2.82.67-3.76,12.12,5.44,52.47-3.38,54.39c0,0,8.24.87,11.72-3.2s3-25.09,3-25.09l0-40Z" transform="translate(-33.7 -0.07)" fill="url(#linear-gradient-16)"/><path d="M145.53,354.8c-5.22-19-12.67-39.08-19.52-57.55a.49.49,0,0,1-.1.51c-.87,1.14-5.89,2-9.29,2.81l-.15,0-.59.14c-10.2,2.52-15.73,1.66-25.87-1.08-6.32,16.89-12.15,34.64-18.47,51.53a2.79,2.79,0,0,0-.24,1.72,2.71,2.71,0,0,0,1.06,1.22l4.91,3.79c.47-1.4,1-2.81,1.43-4.21-.23,4.15-2.8,10.73-3,14.88l.09.08a3.52,3.52,0,0,0,1.52.82c3.21.88,8.5-1.34,11.36,0,3.42,1.61,8.07,2.36,10.52-.51h0c-.73,2.28-.71,5.73,1.67,6.05a5.12,5.12,0,0,0,3-1c4.67-2.56,10.34-1.92,15.67-2,4.82-.05,10.25-1.17,13.1-4.85a2.69,2.69,0,0,0,1.93,2.5c1.69.36,3.34-.62,4.86-1.47a11.24,11.24,0,0,1,1.44-.69,3.75,3.75,0,0,0,2.27-3.76,6.46,6.46,0,0,1,0-.88h0a1.94,1.94,0,0,0,3.55-1A24.1,24.1,0,0,0,145.53,354.8Zm-12.16,11.07a1.39,1.39,0,0,0-.6.6C132.51,366.15,133.05,365.59,133.37,365.87Zm-.35.72a5.64,5.64,0,0,0,.4-.67C133.65,366.18,133.32,366.58,133,366.59Z" transform="translate(-33.7 -0.07)" fill="#b4a078"/><path d="M145.53,354.8c-5.22-19-12.67-39.08-19.52-57.55a1,1,0,0,1-.1.51c-.76,1.68-5.77,2.07-9.29,2.81l-.15,0-.59.14c-10.2,2.52-15.62,1.12-25.76-1.62C83.8,316,77.86,334.3,71.54,351.19a2.79,2.79,0,0,0-.24,1.72,2.71,2.71,0,0,0,1.06,1.22l4.91,3.79c.47-1.4,1-2.81,1.43-4.21-.23,4.15-2.8,10.73-3,14.88l.09.08a6.9,6.9,0,0,0,1.52.82c3.21.88,8.5-1.34,11.36,0,3.52-.86,7.71,2.11,10.22-.19a3,3,0,0,0,.31-.31c-.73,2.28-.71,5.73,1.67,6.05a5.12,5.12,0,0,0,3-1c4.67-2.56,10.34-1.92,15.67-2,4.82-.05,10.25-1.17,13.1-4.85a2.69,2.69,0,0,0,1.93,2.5c1.69.36,3.34-.62,4.86-1.47a11.24,11.24,0,0,1,1.44-.69,3.5,3.5,0,0,0,2.28-3.53,8.22,8.22,0,0,1,0-1.11h0a1.94,1.94,0,0,0,3.55-1A24.1,24.1,0,0,0,145.53,354.8Z" transform="translate(-33.7 -0.07)" fill="url(#linear-gradient-17)"/><path d="M90,446.86c-1.26,0-2.81,0-3.43,1.1a3.36,3.36,0,0,0-.22,1.89l.87,11.37c.12,1.58.33,3.34,1.54,4.35a4.51,4.51,0,0,0,2.62.88,14.15,14.15,0,0,0,6.2-1.37,4.33,4.33,0,0,0,2.12-1.5,4.49,4.49,0,0,0,.41-2.57c-.1-3-.26-6.05-.45-9.07-.12-1.92,0-5.55-2.23-6.09C95.49,445.39,92.18,446.88,90,446.86Z" transform="translate(-33.7 -0.07)" fill="#b4a078"/><path d="M113.91,448.2A40.35,40.35,0,0,0,114.7,463a3.9,3.9,0,0,0,.67,1.58,3.7,3.7,0,0,0,3,1,18.63,18.63,0,0,0,6.82-1.43,2.32,2.32,0,0,0,1-.64,2.41,2.41,0,0,0,.29-1.62L126,454c-.12-1.87.29-4.9-.9-6.5-1-1.35-2.44-1.27-4-1.06C120.43,446.57,114,447.87,113.91,448.2Z" transform="translate(-33.7 -0.07)" fill="#b4a078"/><path d="M90,446.86c-1.26,0-2.81,0-3.43,1.1a3.36,3.36,0,0,0-.22,1.89l.87,11.37c.12,1.58.33,3.34,1.54,4.35a4.51,4.51,0,0,0,2.62.88,14.15,14.15,0,0,0,6.2-1.37,4.33,4.33,0,0,0,2.12-1.5,4.49,4.49,0,0,0,.41-2.57c-.1-3-.26-6.05-.45-9.07-.12-1.92,0-5.55-2.23-6.09C95.49,445.39,92.18,446.88,90,446.86Z" transform="translate(-33.7 -0.07)" fill="url(#linear-gradient-18)"/><path d="M113.91,448.2A40.35,40.35,0,0,0,114.7,463a3.9,3.9,0,0,0,.67,1.58,3.7,3.7,0,0,0,3,1,18.63,18.63,0,0,0,6.82-1.43,2.32,2.32,0,0,0,1-.64,2.41,2.41,0,0,0,.29-1.62L126,454c-.12-1.87.29-4.9-.9-6.5-1-1.35-2.44-1.27-4-1.06C120.43,446.57,114,447.87,113.91,448.2Z" transform="translate(-33.7 -0.07)" fill="url(#linear-gradient-19)"/><path d="M86.8,476.46a1.78,1.78,0,0,0,.53.92,1.87,1.87,0,0,0,.8.28,42.22,42.22,0,0,0,20.57-1.41c2.47-.81,5.26-2.37,5.36-5a6,6,0,0,0-1.54-3.72,18.08,18.08,0,0,0-10.27-6.4,5.89,5.89,0,0,0-4.49.45c-.66.44-1.15,1.1-1.79,1.57-2.48,1.85-6.76.18-8.88,2.39S85.92,473.77,86.8,476.46Z" transform="translate(-33.7 -0.07)" fill="#25233a"/><path d="M113,474.35a4.93,4.93,0,0,0,1.1,2.91,4.85,4.85,0,0,0,3.36,1,53.46,53.46,0,0,0,20.5-3.34,12.39,12.39,0,0,0,4.53-2.56,5,5,0,0,0,1.53-4.76c-.58-2.05-2.72-3.2-4.68-4.06q-3.35-1.49-6.8-2.75a10.26,10.26,0,0,0-3.95-.87c-2.58.12-4.54,2-6.88,2.79s-4,.16-6.3.11C110.42,462.73,112.59,471.06,113,474.35Z" transform="translate(-33.7 -0.07)" fill="#25233a"/><path d="M259,193.06c-.08,2.11-.06,4.38,1.11,6.15,1.89,2.85,6.33,3.17,9.13,1.21s4.08-5.58,4.08-9-1.08-6.75-2.16-10l5.68-.53A97.07,97.07,0,0,0,278.2,195a8.94,8.94,0,0,0,1.45,4.08c2,2.57,5.88,2.35,9.11,1.88l-.82,33.87-41.11.14-3-25.05a4.93,4.93,0,0,1,.18-2.7,6.31,6.31,0,0,1,2.25-2.13A18.8,18.8,0,0,0,253,194.65a76.13,76.13,0,0,0,1.12-11.14c.89-.92,2.93-.74,5.65-.82C259.67,186.12,259.16,189.59,259,193.06Z" transform="translate(-33.7 -0.07)" fill="#b4a078"/><path d="M259,193.06c-.08,2.11-.06,4.38,1.11,6.15,1.89,2.85,6.33,3.17,9.13,1.21s4.08-5.58,4.08-9-1.08-6.75-2.16-10l5.68-.53A97.07,97.07,0,0,0,278.2,195a8.94,8.94,0,0,0,1.45,4.08c2,2.57,5.88,2.35,9.11,1.88l-.82,33.87-41.11.14-3-25.05a4.93,4.93,0,0,1,.18-2.7,6.31,6.31,0,0,1,2.25-2.13A18.8,18.8,0,0,0,253,194.65a76.13,76.13,0,0,0,1.12-11.14c.89-.92,2.93-.74,5.65-.82C259.67,186.12,259.16,189.59,259,193.06Z" transform="translate(-33.7 -0.07)" fill="url(#linear-gradient-20)"/><path d="M335.37,278.33c-.56,5,3.39,9.19,5,13.92a18.91,18.91,0,0,1-1.12,13.94,31.94,31.94,0,0,1-9,11,2.13,2.13,0,0,0-1,1.35,2,2,0,0,0,.27,1c3,6,9.57,9.48,16.17,10.48s13.32-.12,19.89-1.29c4.88-.87,10.13-2,13.42-5.68-7.32-9.79-13.81-21.69-11.44-33.68.69-3.49,2.12-6.86,2.14-10.41.08-10.61-9.5-6.41-16-8.18S336.37,269.48,335.37,278.33Z" transform="translate(-33.7 -0.07)" fill="#b4a078"/><path d="M379,323c-3.29,3.71-8.54,4.81-13.42,5.68-6.57,1.17-13.29,2.3-19.89,1.29a25.39,25.39,0,0,1-8.58-2.89,20.05,20.05,0,0,1-4.65-3.5,16.63,16.63,0,0,1-2.94-4.09,2,2,0,0,1-.27-1,2.13,2.13,0,0,1,1-1.35,31.94,31.94,0,0,0,9-11,18.91,18.91,0,0,0,1.12-13.94c-1.31-3.8-4.12-7.28-4.87-11.08a0,0,0,0,1,0,0,8.84,8.84,0,0,1-.14-2.82,8.56,8.56,0,0,1,1.82-4.55c1.81-2.24,4.73-3.36,7.82-3.73a23.43,23.43,0,0,1,8.75.67c6.48,1.77,16.06-2.43,16,8.18a23.52,23.52,0,0,1-1,6v0c-.39,1.44-.81,2.89-1.1,4.35C365.23,301.3,371.72,313.2,379,323Z" transform="translate(-33.7 -0.07)" fill="url(#linear-gradient-21)"/><path d="M252.88,259.59c-2.76,2.82-4.43,6.5-5.94,10.15a219.27,219.27,0,0,0-12.27,39.94l11.41,3a3,3,0,0,0,1.88.1c1.1-.43,1.34-1.85,1.41-3l1.26-21.43.12,26.72a2.84,2.84,0,0,0,2,3.17c4,2.09,8.15,4.23,12.64,4.15.29,0-1.13-38-1.29-41.47-.34-7-.53-14-1.2-20.94C262.29,253.34,256.6,255.81,252.88,259.59Z" transform="translate(-33.7 -0.07)" fill="#b4a078"/><path d="M252.88,259.59c-2.76,2.82-4.43,6.5-5.94,10.15a219.27,219.27,0,0,0-12.27,39.94l11.41,3a3,3,0,0,0,1.88.1c1.1-.43,1.34-1.85,1.41-3l1.26-21.43.12,26.72a2.84,2.84,0,0,0,2,3.17c4,2.09,8.15,4.23,12.64,4.15.29,0-1.13-38-1.29-41.47-.34-7-.53-14-1.2-20.94C262.29,253.34,256.6,255.81,252.88,259.59Z" transform="translate(-33.7 -0.07)" fill="url(#linear-gradient-22)"/><path d="M277.12,324.05A55.17,55.17,0,0,0,292,315.69a2.62,2.62,0,0,0,1.17-3.21l-4.08-25.16a233,233,0,0,0,6.05,24.57L307.07,307c-1-8.14-3.95-15.9-7.05-23.49-2.7-6.58-5.56-13.24-10.19-18.64-2.86-3.34-10.58-10.74-15.5-7.7-4.71,2.91-2.83,14.59-2.72,19.19C271.71,280.56,277.33,324,277.12,324.05Z" transform="translate(-33.7 -0.07)" fill="#b4a078"/><path d="M277.12,324.05A55.17,55.17,0,0,0,292,315.69a2.62,2.62,0,0,0,1.17-3.21l-4.08-25.16a233,233,0,0,0,6.05,24.57L307.07,307c-1-8.14-3.95-15.9-7.05-23.49-2.7-6.58-5.56-13.24-10.19-18.64-2.86-3.34-10.58-10.74-15.5-7.7-4.71,2.91-2.83,14.59-2.72,19.19C271.71,280.56,277.33,324,277.12,324.05Z" transform="translate(-33.7 -0.07)" fill="url(#linear-gradient-23)"/><path d="M300.93,151.12a.69.69,0,0,0-.25,0,2.43,2.43,0,0,0-1.38.71l-.46.34a10.73,10.73,0,0,1-13-.77,5.57,5.57,0,0,1-10.24.92,5.84,5.84,0,0,1-7.76,2.16,4.44,4.44,0,0,0-2.11-.93c-.87,0-1.54.73-2.25,1.24A5.83,5.83,0,0,1,255,152c-1.4,1.88-4.11,2.26-6.42,1.83a48.07,48.07,0,0,1-4.85-1.42,16.49,16.49,0,0,0-1.93-.48c4.73-9.12,12-17.85,16-27.23,1.32-3.16,3-4.82,3.63-8.17.38-2-1.95-8.5-1.47-11.22a1.45,1.45,0,0,1,.63-1.1c-2,1.1-4,1.27-5.87,2.39,0,0-4.94-5.38-4.69-7.67,4.25-2.2,8.17-5.45,12.41-7.65.77-.4,8.47-2,10.05-1.33,2.52,1.12,4.19,1.46,6.82.63a12.5,12.5,0,0,1,3.76-.38c2.32,0,9.22,1.6,13.24,6.39,1.15,1.38,4,5.19,4,7s-2.94,5.1-4.72,4.86c-1.43-1.43-4.06-2.68-5.61-4-.86,5.57-1.17,7.55-2,13.11a9.75,9.75,0,0,0-.14,3.36,10.18,10.18,0,0,0,.77,2.19Q294.72,137.13,300.93,151.12Z" transform="translate(-33.7 -0.07)" fill="#b4a078"/><path d="M301.45,152a.33.33,0,0,1-.07.13l-.05-.11-.4-.9C301.31,151.26,301.6,151.67,301.45,152Z" transform="translate(-33.7 -0.07)" fill="#b4a078"/><path d="M122.52,220c3-.67,5.49-2.12,6.53.79,1.71,4.77,5.23,15.49,8.4,20.54,3,4.75,6.32,9.25,8.49,12.05a2.29,2.29,0,0,0,3.89-.44l4.07-15.33,13.23,20.84s-10.13,22-16.33,22.8c-10.41,1.41-29.28-34-29.28-34S105.68,223.69,122.52,220Z" transform="translate(-33.7 -0.07)" fill="#b4a078"/><path d="M153.9,237.57,155,216.31l-3-6.89s.84-2.57,3-1.36,3.09,6.7,6.61,2.34a27.38,27.38,0,0,0,4.65-7.88s.7.14.84,2.81a35.89,35.89,0,0,1,0,4.37l.06,3.09s-.76,5.35-2,7.25-3.24,1.9-3.52,6.69.49,23.8.49,23.8Z" transform="translate(-33.7 -0.07)" fill="url(#linear-gradient-24)"/><path d="M346.35,312.5c-7.33,10.13-9.2,14.57-9.2,14.57l-4.65-3.5a16.63,16.63,0,0,1-2.94-4.09,2,2,0,0,1-.27-1,2.13,2.13,0,0,1,1-1.35,31.94,31.94,0,0,0,9-11,18.91,18.91,0,0,0,1.12-13.94c-1.31-3.8-4.12-7.28-4.87-11.08.24.36,4.09,6.13,6,6.27C341.47,287.44,353.67,302.36,346.35,312.5Z" transform="translate(-33.7 -0.07)" fill="url(#linear-gradient-25)"/><path d="M369.74,278.9a23.52,23.52,0,0,1-1,6v0s1-6.31-.45-9.53-5.29-2.55-5.86-2.73-4.82.85-7.81-.44-4.75-1.11-9.19-1.49-8.2,3-8.2,3c1.81-2.24,4.73-3.36,7.82-3.73a23.43,23.43,0,0,1,8.75.67C360.24,272.49,369.82,268.29,369.74,278.9Z" transform="translate(-33.7 -0.07)" fill="url(#linear-gradient-26)"/><path d="M373.65,233l2.2,0c.33-3.49-1.25-6.84-2.55-10.1-2.81-7.09-5.53-15-5.84-22.6a20.08,20.08,0,0,1,.7-3.29,2,2,0,0,0-1.48-.39q-20.56.24-41.14.61c.29.19,1.06-.16.71-.17s-.57.38-.69.71a99.78,99.78,0,0,0-6.44,35.61c6,.69,17.81,1.79,18.36,1.77C349.78,234.58,361.34,233.24,373.65,233Z" transform="translate(-33.7 -0.07)" fill="#b4a078"/><path d="M326.64,204s-4.42,22-2.28,29.95l-5.24-.57s.36-21.86,5.21-32.17Z" transform="translate(-33.7 -0.07)" fill="url(#linear-gradient-27)"/><path d="M326.64,204l1.54.89s-1.45,26.58,2.21,29.63l-6-.57S322.27,226,326.64,204Z" transform="translate(-33.7 -0.07)" fill="url(#linear-gradient-28)"/><path d="M336.07,204.66s-1.24,22.71,1.41,30.48l-7-.67s-1.06-21.84,3.1-32.44Z" transform="translate(-33.7 -0.07)" fill="url(#linear-gradient-29)"/><path d="M336.07,204.66l1.61.79s.28,26.62,4.13,29.41l-4.33.28S334.31,224.69,336.07,204.66Z" transform="translate(-33.7 -0.07)" fill="url(#linear-gradient-30)"/><path d="M349.17,203.65s-1.25,22.71,1.4,30.48l-7.67.72s-.38-23.24,3.78-33.83Z" transform="translate(-33.7 -0.07)" fill="url(#linear-gradient-31)"/><path d="M349.17,203.65l1.6.79s2.16,26.63,6,29.43l-6.21.26S347.4,223.68,349.17,203.65Z" transform="translate(-33.7 -0.07)" fill="url(#linear-gradient-32)"/><path d="M361.62,202.74s-1.81,18.38,5.84,30.48l-7.66.72s-5.08-20.6-.93-31.2Z" transform="translate(-33.7 -0.07)" fill="url(#linear-gradient-33)"/><path d="M361.62,202.74l2.79.36s5.41,27.07,9.26,29.86l-6.21.26S359.85,222.77,361.62,202.74Z" transform="translate(-33.7 -0.07)" fill="url(#linear-gradient-34)"/><path d="M325.93,200.29s31.72,1.78,41.53,0l.7-3.29-41.91.05Z" transform="translate(-33.7 -0.07)" fill="url(#linear-gradient-35)"/><path d="M379,110.7c-.22,18.82-.7,57.63-1.08,58s-11.93.1-16.95-.09q-.89-22.38-1.76-44.76a334.07,334.07,0,0,0-11.52,42.29,1.52,1.52,0,0,1-2.17,1.47c-5.17-1.05-10.55-3.23-15.52-1.47q1.43-11.79,3.7-23.48,2-10.47,4.76-20.81a41.36,41.36,0,0,0,1-4.86,26.54,26.54,0,0,0,.27-3.29c0-1.55-.53-4,.63-5.27.64-.72,3.14-1,6.58-1C358,107.39,379,110.15,379,110.7Z" transform="translate(-33.7 -0.07)" fill="#b4a078"/><path d="M346.91,107.45v1.07s-2.25,8.65-7.13,9.31l-.35-.8a26.54,26.54,0,0,0,.27-3.29c0-1.55-.53-4,.63-5.27C341,107.75,343.47,107.47,346.91,107.45Z" transform="translate(-33.7 -0.07)" fill="url(#linear-gradient-36)"/><path d="M338.61,166,348,124.91l11.17-1s-11.1,37-12.19,43.65Z" transform="translate(-33.7 -0.07)" fill="url(#linear-gradient-37)"/><polygon points="335.98 168.9 334.33 121.6 345.25 121.6 344.17 168.66 335.98 168.9" fill="url(#linear-gradient-38)"/><path d="M372.58,109.52s-1.38,9.9,6.37,12.15v-11Z" transform="translate(-33.7 -0.07)" fill="url(#linear-gradient-39)"/><path d="M358.08,108.72s-1.87,8.92-1.31,10.14a27,27,0,0,0,2.39,3.56L362,108.31Z" transform="translate(-33.7 -0.07)" fill="url(#linear-gradient-40)"/><path d="M272.72,89a4.64,4.64,0,0,0,2.65,2s-3.26,1.42-3.73.62a1.36,1.36,0,0,1,0-1.45s-1.46.95-2,.26S272.72,89,272.72,89Z" transform="translate(-33.7 -0.07)" fill="#b4a078"/><path d="M272.72,89a4.64,4.64,0,0,0,2.65,2s-3.26,1.42-3.73.62a1.36,1.36,0,0,1,0-1.45s-1.46.95-2,.26S272.72,89,272.72,89Z" transform="translate(-33.7 -0.07)" fill="url(#linear-gradient-41)"/><path d="M277.17,91.06s2.68,2.23,3.34,1.06.28-1.41.28-1.41a1.61,1.61,0,0,0,1.64.38c.89-.38-.37-2.11-.37-2.11A10.05,10.05,0,0,1,277.17,91.06Z" transform="translate(-33.7 -0.07)" fill="url(#linear-gradient-42)"/><path d="M250,99l-2,1.48s3.1,6.33,4.72,7l1.94-.85S249.91,101.79,250,99Z" transform="translate(-33.7 -0.07)" fill="url(#linear-gradient-43)"/><path d="M301.45,152l-.12,0a13,13,0,0,1-2.49.11,10.68,10.68,0,0,1-7.12-3.32c-5.21-5.35-8.37-27.46-9-28.44s4.19-9.86,4.68-17.88l2.48,2c-.86,5.57-1.17,7.55-2,13.11a9.75,9.75,0,0,0-.14,3.36,10.18,10.18,0,0,0,.77,2.19q6.22,14,12.43,28C301.31,151.26,301.6,151.67,301.45,152Z" transform="translate(-33.7 -0.07)" fill="url(#linear-gradient-44)"/><path d="M261.6,123l-17.88,29.41a16.49,16.49,0,0,0-1.93-.48c4.73-9.12,12-17.85,16-27.23,1.32-3.16,3-4.82,3.63-8.17.38-2-1.95-8.5-1.47-11.22l.63-1.1s.73,6.12,2.75,8.84S261.6,123,261.6,123Z" transform="translate(-33.7 -0.07)" fill="url(#linear-gradient-45)"/><polygon points="45 353.64 54.74 312.11 38.66 354.06 43.57 357.84 45 353.64" fill="url(#linear-gradient-46)"/><polygon points="51.69 368.14 64.09 313.53 61.59 370.06 51.69 368.14" fill="url(#linear-gradient-47)"/><path d="M143.11,362.89,127.62,309l11.78,59.23S144.24,366.82,143.11,362.89Z" transform="translate(-33.7 -0.07)" opacity="0.41" fill="url(#linear-gradient-48)"/><path d="M120.93,313.6s11.6,48.06,11.68,53.59c0,0-3.49,4-8.29,4.4Z" transform="translate(-33.7 -0.07)" opacity="0.41" fill="url(#linear-gradient-49)"/><path d="M101.06,208.8s9.29-2.49,15.67,0l3.19,4.87s-14.2-2.64-20.57-1S101.06,208.8,101.06,208.8Z" transform="translate(-33.7 -0.07)" fill="#b4a078"/><path d="M101.06,208.8s9.29-2.49,15.67,0l3.19,4.87s-14.2-2.64-20.57-1S101.06,208.8,101.06,208.8Z" transform="translate(-33.7 -0.07)" fill="url(#linear-gradient-50)"/><rect x="259.04" y="370.06" width="52.76" height="10.47" rx="5.24" fill="#b4a078"/><rect x="259.04" y="370.06" width="52.76" height="10.47" rx="5.24" fill="url(#linear-gradient-51)"/><path d="M298.09,38.9H294V37.64a2.39,2.39,0,0,0-.16-1.12.57.57,0,0,0-.52-.24.65.65,0,0,0-.6.33,1.81,1.81,0,0,0-.21,1,2.84,2.84,0,0,0,.23,1.28,3.36,3.36,0,0,0,1.25,1,12.58,12.58,0,0,1,3.7,2.87,6.54,6.54,0,0,1,.77,3.61A6.33,6.33,0,0,1,298,49a3.35,3.35,0,0,1-1.63,1.44,6.47,6.47,0,0,1-2.83.58,6.3,6.3,0,0,1-3-.67,3.22,3.22,0,0,1-1.63-1.7,8.68,8.68,0,0,1-.39-2.94V44.64h4.09V46.7a2.79,2.79,0,0,0,.17,1.22.68.68,0,0,0,.61.28.73.73,0,0,0,.66-.35,2,2,0,0,0,.21-1,3.12,3.12,0,0,0-.41-2,12.66,12.66,0,0,0-2.06-1.54,18.92,18.92,0,0,1-2.17-1.58,3.74,3.74,0,0,1-.89-1.36,6.06,6.06,0,0,1-.35-2.21,6.18,6.18,0,0,1,.5-2.85,3.36,3.36,0,0,1,1.61-1.41,6.49,6.49,0,0,1,2.67-.5,7,7,0,0,1,2.93.55,3.09,3.09,0,0,1,1.6,1.4,7.41,7.41,0,0,1,.39,2.86Z" transform="translate(-33.7 -0.07)" fill="#b4a078"/><path d="M313.74,33.77V50.71h-4.41V43.59H308v7.12h-4.41V33.77H308v6.06h1.31V33.77Z" transform="translate(-33.7 -0.07)" fill="#b4a078"/><path d="M329.34,43.69c0,1.7,0,2.9-.12,3.61a4,4,0,0,1-.75,1.94,4,4,0,0,1-1.71,1.35,6.31,6.31,0,0,1-2.51.47,6.56,6.56,0,0,1-2.45-.44,4.08,4.08,0,0,1-2.52-3.27,36.56,36.56,0,0,1-.13-3.66v-2.9c0-1.7,0-2.91.12-3.61a4.08,4.08,0,0,1,2.47-3.29,6.11,6.11,0,0,1,2.51-.47,6.32,6.32,0,0,1,2.44.44,4.07,4.07,0,0,1,1.74,1.33,4,4,0,0,1,.78,1.94,33.68,33.68,0,0,1,.13,3.66Zm-4.4-5.57a5.58,5.58,0,0,0-.13-1.51.53.53,0,0,0-.54-.33.6.6,0,0,0-.53.27,3.83,3.83,0,0,0-.18,1.57V46a7.81,7.81,0,0,0,.12,1.82.52.52,0,0,0,.56.35.54.54,0,0,0,.57-.4,8,8,0,0,0,.13-1.9Z" transform="translate(-33.7 -0.07)" fill="#b4a078"/><path d="M334.76,33.77h4.43a10.79,10.79,0,0,1,2.77.28,3.1,3.1,0,0,1,1.46.82,2.82,2.82,0,0,1,.65,1.29,11.15,11.15,0,0,1,.18,2.35V40a6.21,6.21,0,0,1-.34,2.37,2.31,2.31,0,0,1-1.23,1.14,5.86,5.86,0,0,1-2.34.4h-1.18v6.82h-4.4Zm4.4,2.9V41h.33a1,1,0,0,0,.84-.3,2.17,2.17,0,0,0,.23-1.24V38.06a1.63,1.63,0,0,0-.27-1.13A1.72,1.72,0,0,0,339.16,36.67Z" transform="translate(-33.7 -0.07)" fill="#b4a078"/></svg>